 <svg version="1.0" xmlns="http://www.w3.org/2000/svg" width="700.000000pt" height="309.000000pt" viewBox="0 0 700.000000 309.000000" preserveAspectRatio="xMidYMid meet">
<metadata>
Created by potrace 1.12, written by Peter Selinger 2001-2015
</metadata>
<g transform="translate(0.000000,309.000000) scale(0.100000,-0.100000)" fill="#000000" stroke="none">
<path d="M2885 3070 c-27 -5 -87 -9 -132 -9 -56 -1 -83 -5 -83 -13 0 -8 33 -9
123 -4 133 7 177 14 177 27 0 10 -13 10 -85 -1z"></path>
<path d="M3000 3070 c0 -5 5 -10 10 -10 6 0 10 5 10 10 0 6 -4 10 -10 10 -5 0
-10 -4 -10 -10z"></path>
<path d="M2400 3060 c0 -5 -7 -10 -15 -10 -8 0 -15 -7 -15 -15 0 -9 -10 -15
-26 -15 -26 0 -54 -20 -54 -39 0 -15 5 -14 53 11 23 12 73 29 111 38 93 22 98
40 12 40 -37 0 -66 -4 -66 -10z"></path>
<path d="M2620 3050 c-8 -5 -11 -12 -8 -16 10 -9 38 3 38 16 0 12 -10 13 -30
0z"></path>
<path d="M3150 3050 c0 -5 7 -10 15 -10 8 0 15 5 15 10 0 6 -7 10 -15 10 -8 0
-15 -4 -15 -10z"></path>
<path d="M2221 3036 c-9 -11 -8 -15 5 -20 20 -8 39 7 30 23 -10 15 -21 14 -35
-3z"></path>
<path d="M3071 3020 c-5 -16 -8 -30 -5 -30 10 0 42 45 37 52 -9 16 -21 7 -32
-22z"></path>
<path d="M4500 3041 c0 -10 30 -24 37 -17 3 3 2 9 -2 15 -8 13 -35 15 -35 2z"></path>
<path d="M2565 3030 c-3 -5 -1 -10 4 -10 6 0 11 5 11 10 0 6 -2 10 -4 10 -3 0
-8 -4 -11 -10z"></path>
<path d="M3502 3018 c5 -15 28 -18 29 -3 0 6 -7 12 -17 13 -10 3 -15 -1 -12
-10z"></path>
<path d="M4560 3020 c0 -5 5 -10 10 -10 6 0 10 5 10 10 0 6 -4 10 -10 10 -5 0
-10 -4 -10 -10z"></path>
<path d="M2060 3010 c0 -5 5 -10 10 -10 6 0 10 5 10 10 0 6 -4 10 -10 10 -5 0
-10 -4 -10 -10z"></path>
<path d="M2493 3013 c-51 -7 -41 -31 15 -38 62 -8 76 -17 82 -50 3 -16 11 -30
18 -33 24 -8 2 51 -29 78 -16 14 -29 31 -29 38 0 6 -6 11 -12 10 -7 0 -28 -3
-45 -5z"></path>
<path d="M3550 3000 c0 -23 10 -26 28 -8 18 18 15 28 -8 28 -13 0 -20 -7 -20
-20z"></path>
<path d="M4620 3010 c0 -5 7 -10 15 -10 8 0 15 5 15 10 0 6 -7 10 -15 10 -8 0
-15 -4 -15 -10z"></path>
<path d="M4653 2978 c-13 -6 -23 -14 -23 -18 0 -7 91 -1 99 6 17 15 -50 25
-76 12z"></path>
<path d="M4750 2973 c0 -16 55 -42 70 -33 10 6 12 12 5 19 -14 14 -75 26 -75
14z"></path>
<path d="M1850 2960 c0 -5 7 -10 15 -10 8 0 15 5 15 10 0 6 -7 10 -15 10 -8 0
-15 -4 -15 -10z"></path>
<path d="M1910 2960 c0 -5 4 -10 9 -10 6 0 13 5 16 10 3 6 -1 10 -9 10 -9 0
-16 -4 -16 -10z"></path>
<path d="M2133 2956 c5 -14 137 -21 137 -6 0 5 -8 10 -17 10 -10 1 -42 2 -71
4 -36 2 -52 0 -49 -8z"></path>
<path d="M4125 2960 c-11 -4 -30 -19 -43 -32 l-23 -25 26 -17 c30 -20 44 -14
25 9 -15 18 -1 40 31 50 10 4 19 11 19 16 0 11 -8 11 -35 -1z"></path>
<path d="M4553 2963 c-21 -3 -34 -11 -38 -24 -4 -13 -15 -19 -36 -19 -16 0
-29 -4 -29 -9 0 -12 -39 -26 -62 -22 -21 3 -22 -3 -8 -30 11 -19 40 -27 40 -9
0 14 42 50 59 50 8 0 23 7 33 17 10 9 34 19 54 22 21 3 37 10 36 16 -1 12 -8
13 -49 8z"></path>
<path d="M5160 2960 c0 -5 12 -10 28 -9 24 0 25 1 7 9 -27 12 -35 12 -35 0z"></path>
<path d="M3027 2953 c-12 -11 -8 -23 7 -23 8 0 16 7 20 15 5 15 -14 21 -27 8z"></path>
<path d="M1653 2923 c-38 -19 -46 -49 -11 -37 49 15 88 35 88 44 0 15 -41 11
-77 -7z"></path>
<path d="M1973 2917 c-13 -5 -23 -14 -23 -19 0 -14 48 -9 53 7 8 20 -4 25 -30
12z"></path>
<path d="M2045 2920 c-4 -6 5 -10 19 -10 14 0 26 5 26 10 0 6 -9 10 -19 10
-11 0 -23 -4 -26 -10z"></path>
<path d="M1754 2912 c4 -6 25 -17 46 -23 32 -10 38 -15 29 -26 -16 -18 -5 -27
24 -19 17 4 26 15 30 33 7 35 -1 47 -19 32 -13 -11 -35 -9 -93 7 -17 5 -22 4
-17 -4z"></path>
<path d="M2118 2909 c-22 -12 -23 -35 -2 -43 20 -8 10 -22 -27 -41 -26 -14
-31 -14 -44 -1 -8 8 -15 26 -15 40 0 47 -42 28 -45 -19 0 -17 4 -20 22 -17 13
2 23 0 23 -6 0 -27 -15 -43 -51 -52 -21 -6 -39 -15 -39 -20 0 -6 -8 -10 -18
-10 -30 0 -112 -58 -112 -79 0 -11 -3 -26 -6 -35 -3 -9 -1 -16 5 -16 6 0 11
10 11 23 0 13 10 33 23 44 27 26 120 73 143 73 9 0 29 9 44 20 15 11 45 23 66
28 28 6 43 15 52 35 11 22 20 27 50 27 41 0 82 -23 82 -46 0 -13 6 -15 51 -18
9 -1 23 -7 32 -14 15 -13 37 -9 37 6 0 4 -13 16 -30 25 -16 10 -30 24 -30 30
0 7 -14 21 -30 31 -17 9 -28 22 -25 27 4 5 -1 9 -9 9 -9 0 -16 -4 -16 -10 0
-16 -27 -12 -34 5 -8 21 -30 19 -51 -5 -10 -11 -22 -20 -27 -20 -5 0 -6 9 -3
20 7 22 -1 25 -27 9z m206 -74 c3 -8 0 -17 -6 -21 -13 -8 -60 45 -52 58 6 10
51 -19 58 -37z"></path>
<path d="M4820 2910 c0 -10 102 -16 198 -12 36 1 64 -4 92 -18 43 -22 50 -24
50 -12 0 4 -19 17 -42 28 -36 18 -63 21 -170 23 -80 0 -128 -3 -128 -9z"></path>
<path d="M4290 2895 c-16 -20 3 -45 33 -42 14 1 25 -7 35 -26 9 -19 17 -26 24
-19 11 11 -49 102 -68 102 -6 0 -17 -7 -24 -15z"></path>
<path d="M5280 2895 c-11 -13 -7 -15 29 -15 44 0 55 14 19 24 -32 8 -34 8 -48
-9z"></path>
<path d="M2992 2889 c2 -7 10 -15 17 -17 8 -3 12 1 9 9 -2 7 -10 15 -17 17 -8
3 -12 -1 -9 -9z"></path>
<path d="M5370 2890 c0 -13 78 -34 125 -32 22 1 58 -5 80 -13 43 -14 195 -26
195 -15 0 22 198 -18 220 -45 18 -22 15 -66 -6 -82 -14 -10 -15 -16 -6 -25 9
-9 17 -7 35 10 13 12 31 22 40 22 27 0 20 15 -13 27 -17 6 -30 19 -30 28 0 14
6 16 30 11 17 -3 44 -9 60 -12 23 -5 30 -3 30 10 0 9 -11 18 -27 21 -16 3 -75
16 -133 30 -83 19 -132 24 -234 24 -83 0 -133 4 -142 12 -8 6 -45 13 -82 15
-37 1 -80 7 -95 13 -35 14 -47 14 -47 1z"></path>
<path d="M5197 2883 c-38 -6 -24 -23 19 -23 23 0 34 4 32 12 -5 14 -14 16 -51
11z"></path>
<path d="M5850 2880 c0 -5 5 -10 10 -10 6 0 10 5 10 10 0 6 -4 10 -10 10 -5 0
-10 -4 -10 -10z"></path>
<path d="M1075 2864 c-33 -8 -77 -17 -97 -21 -36 -5 -50 -24 -28 -38 20 -12
-3 -27 -34 -23 -37 6 -78 -3 -76 -17 0 -5 12 -8 27 -7 48 7 19 -22 -38 -36
-66 -16 -101 -45 -79 -65 8 -7 32 -19 53 -26 36 -12 40 -11 63 10 18 17 37 24
69 24 24 0 50 6 57 13 16 16 33 15 47 -2 22 -27 58 -10 160 75 100 82 117 90
154 74 10 -4 17 -3 17 3 0 15 -56 31 -130 36 -36 3 -74 7 -85 9 -11 3 -47 -2
-80 -9z m154 -33 c18 -12 9 -24 -62 -84 l-51 -42 -95 0 c-80 0 -104 -4 -144
-24 -27 -13 -55 -20 -65 -16 -16 6 -16 8 2 21 11 8 27 14 37 14 18 0 79 43
124 89 17 17 48 35 70 40 53 12 166 13 184 2z"></path>
<path d="M1693 2854 c0 -18 45 -30 60 -15 13 13 10 17 -29 24 -23 4 -31 2 -31
-9z"></path>
<path d="M3637 2857 c-20 -7 -66 -37 -100 -68 -34 -31 -77 -64 -95 -73 -30
-16 -33 -20 -27 -49 10 -45 22 -55 42 -34 16 16 16 18 -2 31 -19 14 -19 15 8
40 15 14 32 26 37 26 5 0 18 12 29 26 39 50 106 85 173 92 44 4 57 7 43 13
-28 11 -64 9 -108 -4z"></path>
<path d="M1485 2853 c-67 -8 -95 -14 -95 -22 0 -8 151 -2 160 6 5 4 -22 24
-30 21 -3 0 -18 -3 -35 -5z"></path>
<path d="M2905 2853 c-37 -9 -40 -23 -4 -23 43 0 79 10 79 21 0 9 -40 10 -75
2z"></path>
<path d="M1560 2843 c0 -10 81 -26 89 -17 9 8 -8 16 -48 21 -24 3 -41 2 -41
-4z"></path>
<path d="M1925 2841 c-6 -11 9 -23 19 -14 9 9 7 23 -3 23 -6 0 -12 -4 -16 -9z"></path>
<path d="M2603 2827 c-7 -15 -19 -27 -28 -27 -16 0 -18 -8 -15 -55 3 -43 16
-62 47 -68 24 -5 35 2 76 49 27 30 55 54 63 54 8 0 14 5 14 10 0 13 -1 13 -38
-6 -17 -8 -40 -25 -49 -37 -33 -41 -50 -49 -72 -38 -34 19 -36 49 -6 81 15 15
25 36 23 46 -2 14 -5 13 -15 -9z"></path>
<path d="M3770 2842 c1 -13 89 -52 119 -52 43 0 47 17 9 33 -39 16 -128 30
-128 19z"></path>
<path d="M4206 2842 c-3 -5 13 -12 37 -15 40 -6 56 -3 45 8 -11 11 -76 17 -82
7z"></path>
<path d="M1783 2823 c-21 -8 -15 -22 7 -16 11 3 20 9 20 14 0 10 -8 10 -27 2z"></path>
<path d="M2801 2814 c-23 -11 -31 -18 -24 -25 7 -7 20 -6 41 5 61 32 47 48
-17 20z"></path>
<path d="M3975 2820 c-3 -5 -1 -10 4 -10 6 0 11 5 11 10 0 6 -2 10 -4 10 -3 0
-8 -4 -11 -10z"></path>
<path d="M4050 2815 c-14 -8 -33 -14 -42 -15 -10 0 -18 -5 -18 -11 0 -12 20
-9 83 13 20 7 37 16 37 20 0 13 -33 8 -60 -7z"></path>
<path d="M4130 2820 c0 -5 14 -10 30 -10 17 0 30 5 30 10 0 6 -13 10 -30 10
-16 0 -30 -4 -30 -10z"></path>
<path d="M1860 2810 c0 -5 5 -10 10 -10 6 0 10 5 10 10 0 6 -4 10 -10 10 -5 0
-10 -4 -10 -10z"></path>
<path d="M2233 2783 c-20 -7 -15 -27 10 -51 38 -35 64 -27 31 10 -14 14 -14
20 -4 33 10 12 9 15 -6 14 -11 0 -25 -3 -31 -6z"></path>
<path d="M3078 2785 c-3 -3 -22 -6 -42 -7 -38 -1 -47 -17 -22 -37 20 -17 98 6
94 27 -3 16 -21 26 -30 17z"></path>
<path d="M3939 2774 c-12 -14 -11 -16 5 -13 11 2 21 10 24 17 5 17 -13 15 -29
-4z"></path>
<path d="M2294 2767 c-8 -22 3 -37 27 -37 24 0 24 12 -1 35 -17 16 -20 16 -26
2z"></path>
<path d="M3606 2744 c-32 -31 -36 -40 -31 -66 5 -21 2 -35 -11 -49 -16 -18
-18 -18 -37 -2 -20 18 -20 17 -13 -12 4 -16 11 -34 16 -38 11 -13 50 11 50 30
0 9 8 25 17 35 13 14 14 21 5 30 -20 20 -13 47 17 62 16 9 31 22 34 31 10 25
-8 17 -47 -21z"></path>
<path d="M2031 2757 c-15 -19 -7 -24 29 -19 25 3 28 7 19 18 -14 18 -33 18
-48 1z"></path>
<path d="M2170 2760 c0 -5 5 -10 10 -10 6 0 10 5 10 10 0 6 -4 10 -10 10 -5 0
-10 -4 -10 -10z"></path>
<path d="M3830 2766 c0 -2 8 -10 18 -17 15 -13 16 -12 3 4 -13 16 -21 21 -21
13z"></path>
<path d="M3676 2737 c-11 -8 -17 -23 -14 -38 3 -21 9 -24 46 -27 25 -2 42 1
42 7 0 6 -13 11 -29 11 -35 0 -48 15 -30 36 16 20 7 27 -15 11z"></path>
<path d="M3883 2743 c9 -2 23 -2 30 0 6 3 -1 5 -18 5 -16 0 -22 -2 -12 -5z"></path>
<path d="M5749 2695 c-13 -13 -30 -25 -36 -25 -7 0 -13 -4 -13 -10 0 -5 4 -10
9 -10 5 0 16 -3 24 -6 10 -3 18 5 25 25 11 31 44 43 57 21 8 -13 25 -3 25 16
0 25 -65 18 -91 -11z"></path>
<path d="M2107 2677 c-14 -19 -27 -47 -29 -63 -2 -21 -12 -33 -37 -46 -38 -19
-81 -88 -55 -88 8 0 14 5 14 10 0 6 23 33 50 61 28 27 50 57 50 65 0 26 40 74
60 74 11 0 24 -9 31 -21 8 -15 14 -18 22 -10 16 16 -20 51 -53 51 -19 0 -35
-10 -53 -33z"></path>
<path d="M5862 2650 c-6 -27 -9 -56 -6 -63 6 -18 110 -108 116 -101 3 2 1 28
-3 57 -6 37 -15 58 -34 72 -30 25 -33 55 -5 55 11 0 20 5 20 11 0 7 -9 9 -22
6 -12 -3 -29 -2 -38 3 -14 8 -19 1 -28 -40z m62 -55 c27 -25 32 -40 17 -49
-14 -9 -61 33 -61 55 0 25 12 24 44 -6z"></path>
<path d="M5574 2652 c-25 -20 -51 -86 -32 -80 6 2 17 20 23 39 11 32 14 34 63
37 29 2 52 7 52 13 0 16 -84 10 -106 -9z"></path>
<path d="M2263 2636 c-25 -12 -30 -26 -10 -26 6 0 22 -3 35 -6 19 -5 22 -2 22
20 0 28 -11 31 -47 12z"></path>
<path d="M3705 2641 c-3 -5 -1 -12 4 -15 12 -8 41 3 41 15 0 12 -37 12 -45 0z"></path>
<path d="M3230 2605 c0 -9 8 -27 17 -41 13 -21 14 -30 5 -45 -18 -29 -15 -37
19 -44 22 -5 36 -3 46 8 14 13 12 20 -14 59 -16 23 -32 51 -36 61 -8 21 -37
23 -37 2z m60 -95 c0 -5 -5 -10 -11 -10 -5 0 -7 5 -4 10 3 6 8 10 11 10 2 0 4
-4 4 -10z"></path>
<path d="M750 2600 c0 -5 4 -10 9 -10 6 0 13 5 16 10 3 6 -1 10 -9 10 -9 0
-16 -4 -16 -10z"></path>
<path d="M3663 2595 c-3 -9 -3 -19 1 -22 8 -9 37 18 30 28 -8 14 -24 11 -31
-6z"></path>
<path d="M1155 2590 c-3 -5 -1 -10 4 -10 6 0 11 5 11 10 0 6 -2 10 -4 10 -3 0
-8 -4 -11 -10z"></path>
<path d="M1830 2590 c0 -5 6 -10 13 -10 7 0 28 -13 47 -30 40 -34 46 -35 54
-15 4 10 -5 19 -28 29 -18 8 -37 19 -40 25 -9 14 -46 15 -46 1z"></path>
<path d="M3455 2590 c-3 -6 -3 -19 0 -30 5 -17 0 -23 -29 -35 -20 -9 -36 -19
-36 -23 0 -12 -73 -58 -115 -73 -40 -15 -42 -20 -15 -37 13 -8 20 -23 20 -42
0 -17 5 -30 11 -30 7 0 9 18 7 47 -3 44 -1 48 32 70 19 13 48 33 64 46 41 31
66 40 109 38 45 -3 50 16 5 21 -29 3 -33 6 -31 31 2 27 -10 36 -22 17z"></path>
<path d="M2300 2571 c0 -11 7 -24 17 -29 22 -13 10 -40 -22 -52 -15 -6 -46
-10 -71 -10 -24 0 -44 -4 -44 -10 0 -13 96 -13 122 1 29 16 33 4 9 -29 -28
-40 -27 -42 13 -42 41 0 56 18 32 36 -17 12 -17 14 0 49 l17 37 -36 35 c-32
30 -37 32 -37 14z"></path>
<path d="M3167 2542 c-15 -17 -24 -52 -13 -52 3 0 17 5 31 10 19 7 26 16 23
32 -4 29 -21 33 -41 10z"></path>
<path d="M3570 2540 c-8 -5 -12 -12 -8 -15 8 -8 58 5 58 16 0 12 -31 11 -50
-1z"></path>
<path d="M5090 2534 c0 -8 5 -12 10 -9 6 3 10 10 10 16 0 5 -4 9 -10 9 -5 0
-10 -7 -10 -16z"></path>
<path d="M5550 2541 c0 -9 28 -21 75 -30 43 -9 75 -61 75 -122 0 -38 -4 -52
-20 -61 -25 -16 -26 -28 -1 -28 25 0 30 9 40 72 7 43 5 58 -11 90 -28 53 -63
79 -98 72 -15 -4 -31 -1 -34 5 -9 13 -26 15 -26 2z"></path>
<path d="M5696 2512 c-3 -6 -1 -14 5 -17 15 -10 25 3 12 16 -7 7 -13 7 -17 1z"></path>
<path d="M1160 2484 c0 -8 5 -12 10 -9 6 4 8 11 5 16 -9 14 -15 11 -15 -7z"></path>
<path d="M5730 2473 c0 -4 7 -17 15 -27 17 -23 34 -13 19 11 -12 19 -34 29
-34 16z"></path>
<path d="M1140 2447 c0 -19 16 -31 24 -18 3 5 -1 14 -9 21 -12 10 -15 10 -15
-3z"></path>
<path d="M1190 2415 c-7 -8 -21 -15 -31 -15 -11 0 -19 -5 -19 -11 0 -6 -17
-32 -37 -58 -55 -67 -63 -85 -63 -140 0 -38 6 -56 25 -79 14 -17 25 -39 25
-50 0 -12 5 -33 11 -49 7 -15 11 -38 11 -50 -1 -12 3 -25 8 -28 6 -3 10 -14
10 -24 0 -10 9 -26 20 -36 25 -22 25 -25 -4 65 -45 142 -45 141 21 115 21 -8
58 -14 83 -12 38 2 46 -1 55 -20 10 -23 29 -30 39 -14 3 5 -12 21 -35 35 -30
21 -47 25 -72 21 -22 -4 -47 1 -79 15 -120 53 -118 148 4 273 35 35 55 64 50
69 -5 5 -14 2 -22 -7z"></path>
<path d="M1750 2419 c0 -5 5 -7 10 -4 6 3 10 8 10 11 0 2 -4 4 -10 4 -5 0 -10
-5 -10 -11z"></path>
<path d="M1806 2422 c6 -4 16 -17 23 -29 10 -19 41 -33 41 -18 0 10 -52 55
-63 55 -8 0 -9 -2 -1 -8z"></path>
<path d="M2143 2395 c1 -20 7 -35 15 -35 6 0 12 -4 12 -10 0 -5 9 -10 20 -10
11 0 20 5 20 10 0 6 -8 10 -19 10 -20 0 -36 36 -20 46 16 9 10 24 -10 24 -16
0 -19 -6 -18 -35z"></path>
<path d="M1660 2414 c0 -4 12 -17 26 -31 22 -20 25 -29 19 -64 -9 -50 7 -72
46 -64 15 4 36 1 48 -7 17 -10 27 -10 53 1 18 7 44 15 58 18 23 4 22 2 -12
-29 -21 -18 -40 -45 -44 -61 -3 -15 -20 -37 -38 -49 -17 -11 -47 -36 -66 -54
-32 -31 -40 -33 -95 -32 -83 2 -174 -14 -213 -37 -26 -16 -36 -17 -51 -8 -19
12 -19 11 -5 -32 12 -32 13 -49 5 -64 -13 -23 -15 -61 -3 -61 4 0 14 28 22 62
14 57 18 63 60 86 38 21 48 23 74 14 24 -10 31 -9 41 5 10 13 22 15 60 10 56
-8 78 -23 70 -48 -7 -20 10 -59 25 -59 6 0 10 27 10 61 0 62 12 99 32 99 6 0
31 16 54 36 33 26 44 43 44 63 0 31 16 51 42 51 9 0 22 9 28 20 6 12 21 20 35
20 15 0 31 10 42 26 9 15 32 33 50 40 21 9 33 21 33 34 0 30 -15 32 -40 5 -16
-18 -34 -25 -59 -25 -20 0 -47 -9 -61 -20 -14 -11 -29 -20 -34 -20 -5 0 -29
-9 -53 -21 -45 -22 -84 -20 -65 4 17 21 24 74 11 83 -7 4 -10 3 -6 -3 4 -6 -4
-18 -18 -27 -14 -9 -25 -23 -25 -30 0 -19 -27 -40 -35 -27 -9 16 24 73 46 78
33 9 21 23 -20 23 -30 0 -40 4 -44 20 -5 18 -47 30 -47 14z m331 -117 c-13
-13 -26 -3 -16 12 3 6 11 8 17 5 6 -4 6 -10 -1 -17z"></path>
<path d="M3903 2393 c-36 -5 -39 -10 -19 -35 16 -22 38 -24 29 -2 -4 10 1 17
16 21 19 5 32 25 14 21 -5 0 -23 -3 -40 -5z"></path>
<path d="M4165 2390 c-3 -5 -1 -10 4 -10 6 0 11 5 11 10 0 6 -2 10 -4 10 -3 0
-8 -4 -11 -10z"></path>
<path d="M3804 2355 c-8 -13 -14 -32 -12 -42 2 -13 9 -6 24 25 23 45 15 58
-12 17z"></path>
<path d="M3970 2353 c0 -17 58 -59 67 -50 4 5 -55 67 -63 67 -2 0 -4 -8 -4
-17z"></path>
<path d="M4130 2359 c0 -5 5 -7 10 -4 6 3 10 8 10 11 0 2 -4 4 -10 4 -5 0 -10
-5 -10 -11z"></path>
<path d="M4213 2333 c-6 -16 28 -53 48 -53 15 0 10 17 -6 24 -8 3 -15 15 -15
26 0 24 -18 27 -27 3z"></path>
<path d="M1868 2333 c-10 -2 -18 -11 -18 -19 0 -20 14 -17 35 6 18 20 16 22
-17 13z"></path>
<path d="M3402 2333 c-34 -4 -105 -66 -145 -126 -14 -20 -26 -27 -51 -27 -45
0 -58 18 -48 66 7 37 10 39 50 42 23 2 42 7 42 13 0 11 -97 12 -103 2 -3 -5
-8 -33 -11 -64 -7 -56 -7 -57 23 -72 53 -27 124 2 135 54 4 20 13 33 27 36 11
3 25 17 30 31 8 20 14 23 37 19 15 -3 35 0 45 7 17 13 23 27 10 24 -5 0 -23
-3 -41 -5z"></path>
<path d="M3487 2331 c-17 -6 -14 -11 22 -44 23 -20 45 -37 51 -37 5 0 16 -12
23 -26 l14 -27 7 29 c5 20 4 30 -6 33 -7 2 -30 21 -52 43 -21 21 -39 38 -40
37 0 0 -9 -4 -19 -8z"></path>
<path d="M3570 2330 c0 -10 61 -40 69 -34 6 6 -43 43 -56 44 -7 0 -13 -4 -13
-10z"></path>
<path d="M5818 2312 c3 -25 7 -28 33 -24 43 6 44 19 3 37 -20 8 -37 15 -38 15
-2 0 -1 -13 2 -28z"></path>
<path d="M4120 2322 c0 -4 11 -24 25 -44 14 -20 25 -47 25 -60 1 -36 31 -68
73 -75 24 -4 37 -2 37 6 0 6 -13 11 -28 11 -44 0 -66 21 -59 57 5 24 1 35 -18
53 -14 13 -27 31 -31 42 -5 17 -24 26 -24 10z"></path>
<path d="M3777 2273 c-12 -12 -7 -22 8 -17 8 4 15 10 15 15 0 11 -14 12 -23 2z"></path>
<path d="M5620 2266 c0 -8 -10 -22 -21 -30 l-22 -15 26 -23 c14 -13 29 -36 33
-52 5 -20 12 -26 27 -24 33 5 31 24 -8 66 -21 24 -32 43 -25 47 13 8 13 45 0
45 -5 0 -10 -6 -10 -14z"></path>
<path d="M3827 2252 c-43 -15 -47 -19 -42 -42 10 -39 29 -52 84 -55 70 -4 74
12 5 21 -58 7 -76 23 -54 49 17 20 90 29 139 15 24 -6 50 -8 60 -4 12 5 5 10
-24 16 -73 17 -120 17 -168 0z"></path>
<path d="M3650 2246 c0 -7 7 -20 16 -27 9 -7 20 -24 25 -37 12 -31 31 -18 23
16 -9 40 -64 81 -64 48z"></path>
<path d="M3450 2235 c0 -8 5 -15 10 -15 6 0 10 7 10 15 0 8 -4 15 -10 15 -5 0
-10 -7 -10 -15z"></path>
<path d="M4265 2233 c4 -10 10 -26 12 -35 6 -19 23 -25 23 -9 0 21 -20 61 -31
61 -7 0 -8 -7 -4 -17z"></path>
<path d="M5455 2239 c-12 -19 5 -23 22 -6 16 16 16 17 1 17 -9 0 -20 -5 -23
-11z"></path>
<path d="M5510 2241 c0 -15 16 -22 34 -15 25 9 19 24 -9 24 -14 0 -25 -4 -25
-9z"></path>
<path d="M5849 2244 c-1 -5 0 -22 1 -37 1 -18 -6 -36 -19 -48 -20 -19 -27 -40
-16 -51 8 -8 80 18 79 29 -3 41 -19 95 -30 104 -8 6 -14 8 -15 3z"></path>
<path d="M3540 2180 c0 -5 7 -10 16 -10 8 0 12 5 9 10 -3 6 -10 10 -16 10 -5
0 -9 -4 -9 -10z"></path>
<path d="M5450 2186 c0 -4 12 -18 28 -31 25 -21 28 -22 45 -8 25 23 21 34 -10
32 -16 -1 -36 2 -45 6 -10 4 -18 4 -18 1z"></path>
<path d="M3395 2161 c-67 -6 -165 -37 -165 -53 0 -11 -1 -11 65 12 71 24 163
27 171 5 10 -25 26 -17 22 12 -4 31 -3 31 -93 24z"></path>
<path d="M3960 2125 c0 -14 5 -25 10 -25 6 0 10 11 10 25 0 14 -4 25 -10 25
-5 0 -10 -11 -10 -25z"></path>
<path d="M3143 2085 c-41 -42 -55 -75 -33 -75 6 0 15 11 20 24 5 13 25 37 44
52 19 15 32 32 30 36 -9 14 -18 8 -61 -37z"></path>
<path d="M5755 2120 c-3 -5 3 -10 14 -10 12 0 21 5 21 10 0 6 -6 10 -14 10 -8
0 -18 -4 -21 -10z"></path>
<path d="M5510 2109 c0 -9 8 -23 18 -33 53 -47 49 -142 -9 -190 -32 -28 -36
-36 -14 -36 18 0 65 50 65 70 0 9 5 21 11 27 21 21 1 95 -36 138 -22 25 -34
34 -35 24z"></path>
<path d="M3480 2089 c1 -8 33 -30 72 -49 90 -44 88 -44 88 -31 0 7 -8 14 -17
18 -10 3 -30 15 -45 25 -14 10 -34 18 -44 18 -9 0 -26 7 -36 17 -14 13 -18 13
-18 2z"></path>
<path d="M5730 2088 c0 -19 18 -43 25 -36 9 9 -4 48 -16 48 -5 0 -9 -6 -9 -12z"></path>
<path d="M3677 2063 c-4 -3 -7 -15 -7 -25 0 -16 3 -16 20 -6 16 10 26 10 52 0
46 -18 188 -28 188 -13 0 6 -8 11 -17 12 -10 1 -45 2 -78 4 -33 1 -75 10 -92
19 -34 17 -55 20 -66 9z"></path>
<path d="M4246 1998 c36 -44 59 -58 95 -58 22 0 39 -6 42 -14 10 -26 167 -30
167 -4 0 5 -18 6 -43 3 -28 -4 -57 -1 -87 10 -25 9 -62 20 -83 25 -21 4 -51
19 -66 34 -33 32 -51 34 -25 4z"></path>
<path d="M1160 1996 c0 -17 33 -76 68 -124 18 -23 23 -40 19 -61 -7 -34 11
-53 90 -94 37 -20 60 -26 78 -21 20 5 33 0 54 -20 28 -27 91 -47 91 -28 0 6
-13 13 -29 17 -16 3 -38 17 -51 30 l-22 23 36 17 c37 18 59 14 49 -10 -3 -8
-1 -15 3 -15 10 1 56 101 50 108 -13 12 -57 -12 -71 -39 -15 -27 -20 -30 -58
-27 -36 3 -44 7 -57 35 -15 33 -30 43 -30 21 0 -7 9 -28 20 -46 11 -18 20 -35
20 -37 0 -14 -51 -1 -95 23 -43 24 -50 32 -56 67 -6 34 -92 195 -105 195 -2 0
-4 -6 -4 -14z"></path>
<path d="M3066 1972 c-22 -15 -55 -52 -73 -82 -29 -49 -32 -60 -27 -106 4 -30
2 -66 -5 -85 -7 -19 -8 -36 -2 -42 15 -15 23 12 28 101 6 97 31 155 83 194 16
11 31 27 34 35 7 17 8 17 -38 -15z"></path>
<path d="M4190 1974 c0 -15 75 -104 92 -110 9 -3 32 -2 50 1 26 5 38 2 52 -14
38 -41 -13 -100 -145 -166 -57 -29 -87 -32 -95 -7 -13 39 -38 89 -58 117 -12
17 -28 44 -36 60 -24 49 -70 115 -81 115 -12 0 23 -62 53 -96 10 -11 18 -30
18 -42 0 -11 4 -23 9 -27 18 -10 71 -96 71 -113 0 -9 3 -28 7 -40 5 -21 10
-23 40 -17 34 6 94 35 172 83 39 24 64 52 87 100 10 19 -3 41 -30 52 -13 5
-26 15 -29 22 -3 10 -8 11 -26 1 -11 -7 -30 -13 -41 -13 -19 0 -60 32 -60 48
-1 4 -9 17 -19 30 -19 22 -31 28 -31 16z"></path>
<path d="M3915 1938 c4 -13 20 -48 35 -78 15 -30 31 -64 36 -75 7 -18 8 -17
12 8 2 16 -3 36 -10 45 -8 10 -25 40 -38 69 -25 53 -47 72 -35 31z"></path>
<path d="M4591 1877 c18 -18 39 -41 45 -51 7 -14 16 -17 30 -12 19 8 19 8 0
19 -11 7 -33 27 -50 45 -17 17 -37 32 -45 32 -9 0 -1 -13 20 -33z"></path>
<path d="M5606 1893 c-9 -10 -7 -43 3 -43 11 0 21 39 11 45 -4 2 -10 2 -14 -2z"></path>
<path d="M1700 1851 c0 -6 17 -18 37 -26 21 -9 40 -20 44 -26 3 -6 17 -9 30
-7 22 3 19 6 -21 29 -56 33 -90 44 -90 30z"></path>
<path d="M4990 1847 c-14 -5 -54 -40 -89 -78 -60 -64 -65 -73 -69 -124 -7 -91
-26 -91 -68 1 -20 44 -38 94 -41 112 -9 53 -27 52 -20 -1 6 -41 22 -82 63
-159 8 -14 14 -33 14 -42 0 -28 29 -30 50 -5 14 17 20 40 20 79 1 54 2 56 70
128 37 39 75 72 84 72 17 0 30 16 19 23 -5 2 -19 0 -33 -6z"></path>
<path d="M5445 1850 c-3 -5 -23 -10 -44 -10 -39 0 -71 -23 -71 -51 0 -9 7 -5
19 10 14 18 24 22 47 17 31 -6 87 25 66 38 -6 3 -13 2 -17 -4z"></path>
<path d="M5060 1836 c0 -2 14 -20 30 -41 17 -21 30 -48 30 -61 0 -26 17 -41
32 -26 6 6 3 20 -9 39 -32 52 -83 107 -83 89z"></path>
<path d="M1877 1774 c-12 -13 4 -24 34 -24 20 0 29 4 27 13 -5 13 -50 22 -61
11z"></path>
<path d="M5400 1764 c0 -9 5 -14 12 -12 18 6 21 28 4 28 -9 0 -16 -7 -16 -16z"></path>
<path d="M4015 1729 c9 -17 19 -28 22 -25 8 8 -17 56 -29 56 -5 0 -1 -14 7
-31z"></path>
<path d="M5330 1743 c0 -5 16 -28 35 -52 37 -46 43 -69 23 -89 -15 -15 -4 -26
17 -19 29 12 18 71 -22 121 -36 43 -53 55 -53 39z"></path>
<path d="M5638 1743 c-15 -25 -17 -62 -4 -72 11 -9 15 -4 21 25 6 34 -6 67
-17 47z"></path>
<path d="M5190 1703 c1 -47 50 -134 50 -89 0 9 6 16 14 16 18 0 86 -63 86 -80
0 -17 24 -6 28 13 2 9 -3 17 -10 17 -8 0 -27 14 -43 30 -16 17 -39 30 -52 30
-16 0 -30 11 -44 35 -21 34 -29 43 -29 28z"></path>
<path d="M1560 1681 c0 -5 12 -11 28 -13 16 -2 27 -9 27 -18 0 -10 -8 -14 -23
-13 -20 3 -21 0 -12 -17 6 -11 16 -20 21 -20 6 0 9 -6 6 -14 -7 -19 59 -76 87
-76 17 0 3 22 -19 30 -28 11 -36 36 -33 100 l3 45 -42 3 c-24 2 -43 -1 -43 -7z"></path>
<path d="M3992 1631 c-11 -16 -24 -42 -28 -57 -4 -16 -11 -34 -16 -41 -11 -14
29 -72 67 -97 26 -17 100 -13 111 5 3 5 14 9 24 9 16 0 60 47 60 63 0 3 -13 8
-30 12 -33 7 -80 57 -80 85 0 53 -73 68 -108 21z m82 -43 c7 -18 25 -44 40
-57 34 -32 33 -47 -5 -60 -47 -16 -70 -14 -96 11 -27 25 -30 66 -8 108 21 41
51 39 69 -2z"></path>
<path d="M2966 1622 c-2 -4 11 -24 30 -44 19 -20 34 -43 34 -50 1 -7 21 -30
46 -52 44 -37 47 -38 82 -27 20 6 53 11 72 10 39 -2 110 21 110 35 0 4 -12 5
-27 2 -16 -4 -65 -11 -110 -17 -78 -10 -83 -10 -113 12 -17 13 -47 47 -66 76
-37 56 -50 68 -58 55z"></path>
<path d="M1841 1594 c-13 -7 -34 -25 -47 -41 -20 -25 -25 -27 -43 -15 -25 15
-25 13 -6 -24 25 -48 19 -90 -21 -142 -29 -38 -34 -52 -29 -79 3 -17 1 -34 -5
-38 -16 -10 -12 -37 9 -59 10 -12 38 -59 62 -105 37 -71 52 -89 96 -117 28
-19 55 -39 59 -46 7 -11 21 -183 29 -368 5 -92 16 -142 34 -148 10 -3 12 0 7
14 -10 22 -23 166 -34 354 -9 153 -15 167 -84 210 -39 24 -54 43 -84 102 -20
40 -45 85 -55 100 -31 44 -26 116 13 169 25 34 33 57 36 101 7 91 47 114 165
95 26 -5 47 -4 47 0 0 13 -83 35 -102 28 -10 -4 -18 -1 -20 7 -2 11 -8 12 -27
2z"></path>
<path d="M4218 1587 c-57 -11 -64 -29 -10 -25 l37 3 -2 -37 c-1 -21 0 -38 2
-38 9 0 35 59 35 79 0 27 -7 29 -62 18z"></path>
<path d="M2010 1562 c0 -4 16 -14 35 -21 19 -7 35 -16 35 -20 0 -14 88 -71
110 -71 29 0 70 -44 70 -75 0 -25 13 -34 24 -16 9 14 -22 78 -46 95 -12 9 -36
16 -52 16 -19 0 -40 10 -56 25 -49 50 -83 75 -101 75 -11 0 -19 -4 -19 -8z"></path>
<path d="M5215 1550 c-4 -6 3 -22 14 -34 12 -13 26 -40 32 -60 10 -37 40 -76
59 -76 21 0 -3 66 -36 96 -19 17 -34 38 -34 46 0 22 -26 42 -35 28z"></path>
<path d="M4855 1538 c-10 -26 -2 -63 15 -63 20 0 24 36 6 60 -13 18 -15 18
-21 3z"></path>
<path d="M5730 1519 c-7 -11 -9 -28 -5 -37 6 -15 9 -14 25 6 18 22 18 52 -1
52 -4 0 -13 -9 -19 -21z"></path>
<path d="M3360 1496 c0 -16 51 -56 72 -56 13 0 29 -5 36 -12 9 -9 12 -9 12 0
0 7 -20 21 -44 32 -24 10 -47 23 -50 29 -7 11 -26 15 -26 7z"></path>
<path d="M4152 1394 c-101 -105 -126 -149 -118 -213 3 -25 8 -77 12 -116 l6
-70 -46 -32 c-50 -35 -70 -73 -62 -113 3 -17 -3 -33 -17 -47 -25 -28 -20 -36
13 -19 22 11 25 18 22 63 -2 47 0 53 33 79 83 67 83 67 78 120 -2 27 -9 62
-14 78 -15 48 -10 109 11 144 11 18 51 64 89 103 38 39 71 79 74 90 3 10 4 19
4 18 -1 0 -39 -38 -85 -85z"></path>
<path d="M5567 1473 c-11 -10 -8 -41 4 -45 6 -2 11 -25 11 -51 1 -58 -21 -87
-68 -87 -37 0 -60 28 -51 61 6 22 -10 36 -24 22 -7 -7 -5 -25 3 -52 10 -32 19
-43 38 -47 14 -2 38 -9 53 -14 24 -7 29 -6 36 13 5 12 7 25 4 30 -2 4 0 7 5 7
5 0 15 14 22 30 10 24 10 37 1 57 -10 21 -9 29 6 45 15 17 15 21 3 28 -18 11
-34 13 -43 3z"></path>
<path d="M5166 1453 c-3 -3 10 -20 27 -38 18 -18 43 -55 57 -82 35 -69 90
-126 107 -112 7 7 13 25 13 41 0 30 0 30 -24 15 -26 -17 -36 -12 -50 27 -6 19
-6 19 12 3 10 -9 22 -17 25 -17 18 0 1 26 -58 89 -59 63 -96 87 -109 74z"></path>
<path d="M5508 1411 c-18 -17 -28 -31 -21 -31 17 0 69 47 61 55 -3 3 -21 -7
-40 -24z"></path>
<path d="M3466 1350 c-6 -34 5 -70 27 -89 39 -31 68 -175 43 -213 -30 -47 -30
-94 0 -153 15 -30 31 -55 36 -55 11 0 11 2 -17 61 -26 56 -25 76 2 141 21 50
4 144 -37 211 -20 32 -30 61 -30 88 0 46 -15 52 -24 9z"></path>
<path d="M5660 1360 c0 -5 5 -10 10 -10 6 0 10 5 10 10 0 6 -4 10 -10 10 -5 0
-10 -4 -10 -10z"></path>
<path d="M3905 1340 c-3 -5 -1 -10 4 -10 6 0 11 5 11 10 0 6 -2 10 -4 10 -3 0
-8 -4 -11 -10z"></path>
<path d="M2290 1320 c0 -5 5 -10 10 -10 6 0 10 5 10 10 0 6 -4 10 -10 10 -5 0
-10 -4 -10 -10z"></path>
<path d="M5880 1322 c0 -28 30 -61 71 -80 48 -21 78 -55 59 -67 -17 -10 -11
-23 8 -18 10 2 24 -3 31 -11 18 -21 34 -20 49 4 17 28 33 25 67 -10 16 -16 38
-30 49 -30 18 0 17 3 -11 33 -17 17 -29 37 -26 43 8 22 -42 62 -110 89 -64 26
-68 26 -93 10 -28 -18 -59 -13 -51 9 3 7 0 19 -6 25 -13 13 -37 15 -37 3z
m187 -67 c44 -18 75 -44 67 -56 -7 -11 -74 -43 -79 -37 -2 2 -18 24 -34 48
-41 62 -27 75 46 45z"></path>
<path d="M2335 1310 c-7 -11 65 -45 118 -55 45 -9 117 -59 117 -82 0 -9 -14
-38 -31 -64 -24 -37 -33 -67 -40 -126 -12 -93 -26 -117 -83 -144 -46 -21 -84
-55 -73 -65 3 -3 23 8 44 24 21 17 49 32 63 34 34 4 61 62 68 146 4 54 11 77
38 118 38 57 45 111 17 121 -10 3 -29 16 -43 28 -15 13 -45 26 -75 30 -27 4
-60 15 -73 26 -28 21 -38 23 -47 9z"></path>
<path d="M5641 1307 c-18 -18 -14 -50 6 -43 9 4 20 1 24 -6 12 -19 21 -3 14
25 -8 29 -28 40 -44 24z"></path>
<path d="M3940 1289 c0 -5 5 -7 10 -4 6 3 10 8 10 11 0 2 -4 4 -10 4 -5 0 -10
-5 -10 -11z"></path>
<path d="M5820 1270 c0 -5 5 -10 10 -10 6 0 10 5 10 10 0 6 -4 10 -10 10 -5 0
-10 -4 -10 -10z"></path>
<path d="M6243 1223 c-13 -2 -23 -9 -23 -14 0 -14 26 -11 40 6 7 8 11 14 9 14
-2 -1 -14 -4 -26 -6z"></path>
<path d="M5372 1190 c4 -14 136 -45 146 -35 12 11 -20 30 -56 32 -20 1 -50 5
-66 9 -21 5 -28 4 -24 -6z"></path>
<path d="M5725 1130 c-3 -5 -2 -10 4 -10 5 0 13 5 16 10 3 6 2 10 -4 10 -5 0
-13 -4 -16 -10z"></path>
<path d="M5863 1063 c-29 -11 -50 -40 -38 -51 3 -3 15 4 28 16 28 27 52 28 66
5 9 -16 12 -16 21 -3 5 8 10 20 10 26 0 17 -52 22 -87 7z"></path>
<path d="M6060 1055 c-6 -14 -10 -34 -10 -43 0 -9 -7 -30 -15 -45 -10 -21 -11
-27 -2 -24 6 2 17 14 24 28 17 34 37 30 41 -8 2 -18 7 -33 13 -33 15 0 10 76
-6 90 -8 7 -15 21 -15 31 0 29 -19 32 -30 4z"></path>
<path d="M4220 1020 c-11 -16 -33 -35 -48 -42 -15 -7 -28 -23 -30 -36 -5 -30
3 -28 37 11 45 49 54 26 25 -65 -17 -54 -30 -78 -41 -78 -13 0 -15 8 -10 40 6
44 -1 51 -21 20 -16 -26 -6 -89 15 -97 25 -10 50 29 82 129 44 136 40 187 -9
118z"></path>
<path d="M5733 1005 c-13 -9 -23 -23 -23 -32 0 -15 2 -14 18 0 10 10 29 17 41
17 14 0 21 5 19 13 -7 18 -30 19 -55 2z"></path>
<path d="M5930 987 c0 -17 46 -50 62 -45 6 2 -6 16 -26 31 -25 20 -36 24 -36
14z"></path>
<path d="M5653 931 c-8 -23 -20 -32 -54 -41 -57 -14 -89 -32 -113 -64 -16 -21
-19 -41 -18 -116 1 -68 -2 -97 -14 -116 -15 -22 -15 -24 1 -30 19 -8 95 15 95
28 0 4 -14 7 -31 6 l-31 -3 1 100 c2 121 13 142 91 167 54 18 110 61 110 85 0
24 -26 13 -37 -16z"></path>
<path d="M6120 912 c0 -6 16 -38 35 -71 57 -97 47 -139 -63 -256 -41 -44 -75
-70 -98 -76 -18 -6 -34 -14 -34 -19 0 -13 7 -12 50 3 39 13 157 132 182 182
31 63 30 91 -8 159 -35 64 -64 99 -64 78z"></path>
<path d="M6480 860 c0 -5 5 -10 11 -10 5 0 7 5 4 10 -3 6 -8 10 -11 10 -2 0
-4 -4 -4 -10z"></path>
<path d="M3570 793 c0 -23 12 -60 30 -93 16 -30 29 -67 30 -81 0 -15 6 -32 14
-38 18 -15 107 -5 154 17 43 19 115 115 109 145 -3 22 -4 22 -14 -3 -21 -49
-75 -112 -106 -125 -49 -20 -118 -23 -127 -5 -33 63 -70 161 -70 183 0 14 -4
29 -10 32 -6 4 -10 -9 -10 -32z"></path>
<path d="M2334 718 c-4 -13 -15 -34 -25 -47 -11 -13 -19 -32 -19 -42 0 -9 -11
-26 -25 -37 -30 -24 -31 -32 -5 -32 18 0 50 44 50 70 0 6 11 26 25 44 25 33
33 66 16 66 -5 0 -13 -10 -17 -22z"></path>
<path d="M5655 636 c-52 -16 -85 -34 -85 -46 0 -15 26 -12 40 4 6 8 36 20 66
26 30 6 54 16 54 21 0 12 -26 10 -75 -5z"></path>
<path d="M5770 646 c0 -9 59 -66 68 -66 26 0 19 20 -16 44 -36 24 -52 31 -52
22z"></path>
<path d="M5874 542 c2 -48 12 -62 42 -62 29 0 32 16 5 23 -13 3 -22 17 -26 41
-9 47 -24 46 -21 -2z"></path>
<path d="M2210 530 c0 -11 -9 -25 -20 -32 -29 -18 -25 -31 8 -23 38 9 46 19
38 49 -8 31 -26 35 -26 6z"></path>
<path d="M6496 481 c-31 -32 -37 -68 -8 -51 9 5 29 20 44 33 26 21 27 23 9 34
-16 10 -23 7 -45 -16z"></path>
<path d="M2135 450 c-8 -13 4 -32 16 -25 12 8 12 35 0 35 -6 0 -13 -4 -16 -10z"></path>
<path d="M5938 422 c-22 -3 -28 -9 -28 -28 0 -30 11 -30 46 -1 30 26 24 35
-18 29z"></path>
<path d="M6399 414 c-7 -9 -43 -31 -80 -50 -73 -36 -89 -51 -65 -60 9 -3 33 7
58 25 23 17 46 31 50 31 16 0 68 44 68 57 0 18 -15 16 -31 -3z"></path>
<path d="M2113 359 c-2 -35 0 -39 13 -28 16 13 15 60 -1 66 -6 2 -11 -15 -12
-38z"></path>
<path d="M2007 333 c8 -53 22 -77 23 -38 0 38 -10 75 -21 75 -4 0 -5 -17 -2
-37z"></path>
<path d="M2116 273 c3 -26 1 -44 -9 -58 -14 -19 -16 -18 -42 13 -33 39 -52 42
-30 4 16 -26 65 -62 86 -62 5 0 9 12 9 28 0 15 6 39 14 54 13 25 13 28 -10 43
l-24 16 6 -38z"></path>
<path d="M2150 151 c0 -13 29 -35 37 -28 7 8 -15 37 -28 37 -5 0 -9 -4 -9 -9z"></path>
</g>
</svg>